<svg xmlns="http://www.w3.org/2000/svg" width="256" height="256" viewBox="0 0 256 256"><path d="M57.9 168.1a31.9 31.9 0 0 0-7.7.9h-.1v.2c0 .2.3.6.8.9l2 1.1 2.7 1 2.8.8 2.4.6 1.5.2h2.2a10.9 10.9 0 0 0 2.5-.4 9.9 9.9 0 0 0 2.4-.9 3.9 3.9 0 0 0 1.7-1.4 25.6 25.6 0 0 0-6.4-2.2 30.8 30.8 0 0 0-6.8-.8z"/><path d="M127.3.8a128 128 0 1 0 128 128 128 128 0 0 0-128-128zm83.5 70.7v.3a9.5 9.5 0 0 1-.1 1.4c-.1.6-.2 1.4-.3 2.1s-.2 1.4-.4 2.1-.2 1.1-.2 1.3a6.6 6.6 0 0 0-.9 1.9 11.8 11.8 0 0 0-.7 2l-.6 2a10.7 10.7 0 0 1-.7 1.9 18 18 0 0 1-1.7 3.1 30.1 30.1 0 0 0-1.6 3.1l-20.1 27.9c-.1.3-.1.5-.2.6l-.3.2-.3.3-.4.5-1.7 2.3-2 2.9-2.3 3.3c-.7 1.1-1.4 2.2-1.9 3.2a19.4 19.4 0 0 0-1.4 3 6.4 6.4 0 0 0-.6 2.4c0 .3-.2.5-.2.7s.2.4.2.7c-.2.1-.3.2-.3.4s.1.4.3.4v10.3a4.4 4.4 0 0 1-.2 1c-.2.3-.2.7-.4 1.1a6.7 6.7 0 0 0-.6 1.2c-.1.5-.5.8-.5 1.2v1.7a.3.3 0 0 1 0 .4l-.4.8-.7.8-.5.4v.4c0 .1.7.2.8.4s.8.4.8.4v1.5a2.1 2.1 0 0 1 0 .8v.6a19.7 19.7 0 0 1-.6 3.5c-.2 1.2-.5 2.4-.8 3.6l-.6 3.5a22.1 22.1 0 0 0-.4 3.5c0 2.2.1 4.3.3 6.4a61.7 61.7 0 0 0 1.1 6.2 40.7 40.7 0 0 0 2.2 5.8 24.5 24.5 0 0 0 3.4 5.2 4.8 4.8 0 0 1-1.3.9l-1.6.7-1.8.4a3.4 3.4 0 0 1-1.4.1h-.5l-1-.2-1.2-.3-1-.2-.8-.2-.7-.3a1 1 0 0 1-.6-.5c-.2-.1-.3-.4-.4-.7a18.6 18.6 0 0 0 .1-4.1c0-1.4-.1-2.8-.2-4.3l-.6-4.3c-.2-1.4-.3-2.7-.5-4.1s-.1-.3-.2-.6l-.2-.6c0-1.1.1-2.3.1-3.7s0-2.7-.1-4a25.7 25.7 0 0 0-.6-4 12.3 12.3 0 0 0-1.5-3.5 3.7 3.7 0 0 0-1.4 1.8 22.9 22.9 0 0 0-.8 2.8c-.2.9-.2 1.9-.5 2.9s-.9 1.7-.9 2.3v7.7c0 2.8-.2 5.6-.1 8.3a79.1 79.1 0 0 0 .6 8.3l.4.3.8.6.8.7c.2.2.4.4.4.6s-.3.5-.9.8l-1.8.9a9 9 0 0 1-2.1.8l-1.2.5h-.2l-4.8-2.6a.4.4 0 0 1-.2-.5v-.6c0-1.1-.1-2.2 0-3.1a28.1 28.1 0 0 0 .1-3 23.4 23.4 0 0 0-.3-3.8l-.6-3.8-.6-3.7a26.1 26.1 0 0 1-.2-4c0-1.2 0-2.3.1-3.3a24 24 0 0 1 .3-2.8 27.4 27.4 0 0 0 .5-2.8c.2-1 .5-2.1.7-3.3s0-.4 0-.7a2.5 2.5 0 0 1-.2-.7l-1.8.2-1.9.5-1.9.7-2 .5-1.3.2h-2.1l-1.1-.2H128a46.1 46.1 0 0 0-5.3-.2h-2.4a4.2 4.2 0 0 0-2.4.9v5.2c0 1.7-.1 3.5-.2 5.2s-.2 3.4-.2 5.1-.2 3.5-.2 5.2v5.2c0 .5.7 1.1 1.1 1.6l1.5 1.8 1.2 1.7a4.1 4.1 0 0 1 .5 1.8v.3a8.1 8.1 0 0 1-4.1.4c.1.5 0 .8-.3.8h-2.7a9 9 0 0 1-2.3-.2 3.8 3.8 0 0 1-1.8-.9 2.2 2.2 0 0 1-.8-1.8 5.1 5.1 0 0 1 .2-1.3l.3-1.3.3-1.4a6.1 6.1 0 0 0 .1-1.4 23.6 23.6 0 0 0-.2-3.8 32.9 32.9 0 0 0-.7-3.6c-.3-1.2-.6-2.7-.8-3.9a28.1 28.1 0 0 1-.8-4h-.4c-.2 0-.4.8-.5.9l-.4.7-.3.6-1.6 2.3-1.5 2.2a26 26 0 0 0-1 2.5 7.6 7.6 0 0 0-.5 2.7 3.2 3.2 0 0 0 .4 1.6 7.7 7.7 0 0 0 .7 1.6l.7 1.1c.3.3.4.5.4.6s-.2.5-.5.7l-1 .5-1.3.3h-2.6l-1.8-.2a2 2 0 0 1-1.1-.3 3.5 3.5 0 0 1-.7-.9l-.5-1.7c-.2-.5-.3-1-.5-1.6a4.5 4.5 0 0 1-.3-1.6 3.4 3.4 0 0 1 .4-1.6l1-1.6 1-1.5a4.4 4.4 0 0 0 .8-1.5c.9-2 1.7-4 2.5-5.9l2.5-6 .5-.7.5-.7a3 3 0 0 0 .4-.8 1.2 1.2 0 0 0 .2-.8c0-.4-.1-.6-.3-.7h-1.3l-9 2.5a3.8 3.8 0 0 1-1.4.5l-1.8.4-1.5.6a1.1 1.1 0 0 0-.7 1.1 2.9 2.9 0 0 0 .2.9l.7.6.8.6.8.6-.4.4-1.3-.8-1.4-.8-1.6-.7-1.5-.2a17.3 17.3 0 0 0-3.8.5l-4 1.2-4.1 1.1a15.4 15.4 0 0 1-4.3.5 17.7 17.7 0 0 1-3.4-.4 38.2 38.2 0 0 1-5-1.1l-5.4-1.8a30.1 30.1 0 0 1-5.1-2.2 23.7 23.7 0 0 1-3.7-2.7 4.6 4.6 0 0 1-1.4-3 4.7 4.7 0 0 1 1.1-3.3 7.3 7.3 0 0 1 2.8-1.7 13.6 13.6 0 0 1 3.5-.1 33.1 33.1 0 0 1 3.4.3h4a2.7 2.7 0 0 1 1.3-.2H62l2.6.3 2 .3 1.9.5 1.8.9 1.9.8a6.4 6.4 0 0 0 2 .3 8.9 8.9 0 0 0 4-1.1 30.9 30.9 0 0 0 4.2-2.5l3.9-3.2a33 33 0 0 1 3.3-2.7l1.8-1.3a11.8 11.8 0 0 0 1.9-1.1 10.9 10.9 0 0 0 1.7-1.3 5 5 0 0 0 1.5-1.7 33.5 33.5 0 0 0 2.7-4.5 41.2 41.2 0 0 1 2.7-4.5 8 8 0 0 1 1.3-1.3l1.6-1 1.6-.9a8.3 8.3 0 0 0 1.6-.9c1.3-.8 2.5-1.7 3.7-2.6l3.4-3 3.4-3 3.5-2.9a20.8 20.8 0 0 1 3.8-2.2l4-1.9 2.5-1.3 2.5-1.3 2.5-1.1a13.8 13.8 0 0 1 2.7-.8l22.6-3.3a11 11 0 0 0 3.5-1.1 24.6 24.6 0 0 0 3.4-2.2l3.2-2.9 2.9-3.3 2.7-3.2 2.4-2.9 7.7-9 .4-.3.5-.5.5-.6.3-.2 2.1-3.3c0-.1.1-.1.2-.2l.4-.2.4-.3a.2.2 0 0 0 .2-.2l.4-.4.4-.4a12.5 12.5 0 0 0 1.2-1.7 14.3 14.3 0 0 0 1.4-2 21.4 21.4 0 0 0 1.3-1.9 18 18 0 0 0 1-1.8 12.1 12.1 0 0 0 .9-2 17.2 17.2 0 0 1 .7-2.1c.2-.8.5-1.5.7-2.2s1.1-1.5 1.1-2.3v-5.7a5.3 5.3 0 0 0-1.1-3.1 13.8 13.8 0 0 0-2.7-2.7 18.3 18.3 0 0 0-3.4-1.8 10.9 10.9 0 0 0-3.2-.7 28.8 28.8 0 0 0-5.9.7 12.6 12.6 0 0 0-5.1 2.7 6.4 6.4 0 0 0-1.5 1.4c-.5.6-1 1.3-1.6 1.9l-1.8 2-1.8 1.9a10.7 10.7 0 0 1-1.9 1.3 4.1 4.1 0 0 1-1.7.5 1.7 1.7 0 0 1-1.2-.5 1.6 1.6 0 0 1-.5-1.1v-.4a1.1 1.1 0 0 1 .1-.5c0-.3.1-.5.1-.8a2.4 2.4 0 0 0 .2-.8 1 1 0 0 1 .1-.4 4.3 4.3 0 0 0-.3-1.7l-.6-1.4-.6-1.2a2.7 2.7 0 0 1-.2-1.3c.4 0 .6 0 .8-.2l.5-.7.4-.7a1.2 1.2 0 0 1 .8-.6h2.9a1.2 1.2 0 0 0 .9-.3 2.3 2.3 0 0 1 .7-.7h.4l.3.4a1 1 0 0 0 .1.4c.1-.2.2-.3.4-.3l.7-.4 1.1-.7 1.4-.8 1.3-.8 1.1-.6.6-.4a13.5 13.5 0 0 1 2.1-1.3 6.4 6.4 0 0 1 1.8-.6 10.8 10.8 0 0 1 1.9-.3h6.5l1.5.5a4 4 0 0 0 1.5.3l1.6.4a4.3 4.3 0 0 1 1.6.5 15.9 15.9 0 0 1 4.6 3 21.2 21.2 0 0 1 3.2 4.2 21.8 21.8 0 0 1 1.7 5.1 25.6 25.6 0 0 1 .5 5.5v2.4z"/></svg>