<svg xmlns="http://www.w3.org/2000/svg"><symbol id="brachiosaurus" viewBox="0 0 256 256"><path d="M57.9 168.1a31.9 31.9 0 0 0-7.7.9h-.1v.2c0 .2.3.6.8.9l2 1.1 2.7 1 2.8.8 2.4.6 1.5.2h2.2a10.9 10.9 0 0 0 2.5-.4 9.9 9.9 0 0 0 2.4-.9 3.9 3.9 0 0 0 1.7-1.4 25.6 25.6 0 0 0-6.4-2.2 30.8 30.8 0 0 0-6.8-.8z"/><path d="M127.3.8a128 128 0 1 0 128 128 128 128 0 0 0-128-128zm83.5 70.7v.3a9.5 9.5 0 0 1-.1 1.4c-.1.6-.2 1.4-.3 2.1s-.2 1.4-.4 2.1-.2 1.1-.2 1.3a6.6 6.6 0 0 0-.9 1.9 11.8 11.8 0 0 0-.7 2l-.6 2a10.7 10.7 0 0 1-.7 1.9 18 18 0 0 1-1.7 3.1 30.1 30.1 0 0 0-1.6 3.1l-20.1 27.9c-.1.3-.1.5-.2.6l-.3.2-.3.3-.4.5-1.7 2.3-2 2.9-2.3 3.3c-.7 1.1-1.4 2.2-1.9 3.2a19.4 19.4 0 0 0-1.4 3 6.4 6.4 0 0 0-.6 2.4c0 .3-.2.5-.2.7s.2.4.2.7c-.2.1-.3.2-.3.4s.1.4.3.4v10.3a4.4 4.4 0 0 1-.2 1c-.2.3-.2.7-.4 1.1a6.7 6.7 0 0 0-.6 1.2c-.1.5-.5.8-.5 1.2v1.7a.3.3 0 0 1 0 .4l-.4.8-.7.8-.5.4v.4c0 .1.7.2.8.4s.8.4.8.4v1.5a2.1 2.1 0 0 1 0 .8v.6a19.7 19.7 0 0 1-.6 3.5c-.2 1.2-.5 2.4-.8 3.6l-.6 3.5a22.1 22.1 0 0 0-.4 3.5c0 2.2.1 4.3.3 6.4a61.7 61.7 0 0 0 1.1 6.2 40.7 40.7 0 0 0 2.2 5.8 24.5 24.5 0 0 0 3.4 5.2 4.8 4.8 0 0 1-1.3.9l-1.6.7-1.8.4a3.4 3.4 0 0 1-1.4.1h-.5l-1-.2-1.2-.3-1-.2-.8-.2-.7-.3a1 1 0 0 1-.6-.5c-.2-.1-.3-.4-.4-.7a18.6 18.6 0 0 0 .1-4.1c0-1.4-.1-2.8-.2-4.3l-.6-4.3c-.2-1.4-.3-2.7-.5-4.1s-.1-.3-.2-.6l-.2-.6c0-1.1.1-2.3.1-3.7s0-2.7-.1-4a25.7 25.7 0 0 0-.6-4 12.3 12.3 0 0 0-1.5-3.5 3.7 3.7 0 0 0-1.4 1.8 22.9 22.9 0 0 0-.8 2.8c-.2.9-.2 1.9-.5 2.9s-.9 1.7-.9 2.3v7.7c0 2.8-.2 5.6-.1 8.3a79.1 79.1 0 0 0 .6 8.3l.4.3.8.6.8.7c.2.2.4.4.4.6s-.3.5-.9.8l-1.8.9a9 9 0 0 1-2.1.8l-1.2.5h-.2l-4.8-2.6a.4.4 0 0 1-.2-.5v-.6c0-1.1-.1-2.2 0-3.1a28.1 28.1 0 0 0 .1-3 23.4 23.4 0 0 0-.3-3.8l-.6-3.8-.6-3.7a26.1 26.1 0 0 1-.2-4c0-1.2 0-2.3.1-3.3a24 24 0 0 1 .3-2.8 27.4 27.4 0 0 0 .5-2.8c.2-1 .5-2.1.7-3.3s0-.4 0-.7a2.5 2.5 0 0 1-.2-.7l-1.8.2-1.9.5-1.9.7-2 .5-1.3.2h-2.1l-1.1-.2H128a46.1 46.1 0 0 0-5.3-.2h-2.4a4.2 4.2 0 0 0-2.4.9v5.2c0 1.7-.1 3.5-.2 5.2s-.2 3.4-.2 5.1-.2 3.5-.2 5.2v5.2c0 .5.7 1.1 1.1 1.6l1.5 1.8 1.2 1.7a4.1 4.1 0 0 1 .5 1.8v.3a8.1 8.1 0 0 1-4.1.4c.1.5 0 .8-.3.8h-2.7a9 9 0 0 1-2.3-.2 3.8 3.8 0 0 1-1.8-.9 2.2 2.2 0 0 1-.8-1.8 5.1 5.1 0 0 1 .2-1.3l.3-1.3.3-1.4a6.1 6.1 0 0 0 .1-1.4 23.6 23.6 0 0 0-.2-3.8 32.9 32.9 0 0 0-.7-3.6c-.3-1.2-.6-2.7-.8-3.9a28.1 28.1 0 0 1-.8-4h-.4c-.2 0-.4.8-.5.9l-.4.7-.3.6-1.6 2.3-1.5 2.2a26 26 0 0 0-1 2.5 7.6 7.6 0 0 0-.5 2.7 3.2 3.2 0 0 0 .4 1.6 7.7 7.7 0 0 0 .7 1.6l.7 1.1c.3.3.4.5.4.6s-.2.5-.5.7l-1 .5-1.3.3h-2.6l-1.8-.2a2 2 0 0 1-1.1-.3 3.5 3.5 0 0 1-.7-.9l-.5-1.7c-.2-.5-.3-1-.5-1.6a4.5 4.5 0 0 1-.3-1.6 3.4 3.4 0 0 1 .4-1.6l1-1.6 1-1.5a4.4 4.4 0 0 0 .8-1.5c.9-2 1.7-4 2.5-5.9l2.5-6 .5-.7.5-.7a3 3 0 0 0 .4-.8 1.2 1.2 0 0 0 .2-.8c0-.4-.1-.6-.3-.7h-1.3l-9 2.5a3.8 3.8 0 0 1-1.4.5l-1.8.4-1.5.6a1.1 1.1 0 0 0-.7 1.1 2.9 2.9 0 0 0 .2.9l.7.6.8.6.8.6-.4.4-1.3-.8-1.4-.8-1.6-.7-1.5-.2a17.3 17.3 0 0 0-3.8.5l-4 1.2-4.1 1.1a15.4 15.4 0 0 1-4.3.5 17.7 17.7 0 0 1-3.4-.4 38.2 38.2 0 0 1-5-1.1l-5.4-1.8a30.1 30.1 0 0 1-5.1-2.2 23.7 23.7 0 0 1-3.7-2.7 4.6 4.6 0 0 1-1.4-3 4.7 4.7 0 0 1 1.1-3.3 7.3 7.3 0 0 1 2.8-1.7 13.6 13.6 0 0 1 3.5-.1 33.1 33.1 0 0 1 3.4.3h4a2.7 2.7 0 0 1 1.3-.2H62l2.6.3 2 .3 1.9.5 1.8.9 1.9.8a6.4 6.4 0 0 0 2 .3 8.9 8.9 0 0 0 4-1.1 30.9 30.9 0 0 0 4.2-2.5l3.9-3.2a33 33 0 0 1 3.3-2.7l1.8-1.3a11.8 11.8 0 0 0 1.9-1.1 10.9 10.9 0 0 0 1.7-1.3 5 5 0 0 0 1.5-1.7 33.5 33.5 0 0 0 2.7-4.5 41.2 41.2 0 0 1 2.7-4.5 8 8 0 0 1 1.3-1.3l1.6-1 1.6-.9a8.3 8.3 0 0 0 1.6-.9c1.3-.8 2.5-1.7 3.7-2.6l3.4-3 3.4-3 3.5-2.9a20.8 20.8 0 0 1 3.8-2.2l4-1.9 2.5-1.3 2.5-1.3 2.5-1.1a13.8 13.8 0 0 1 2.7-.8l22.6-3.3a11 11 0 0 0 3.5-1.1 24.6 24.6 0 0 0 3.4-2.2l3.2-2.9 2.9-3.3 2.7-3.2 2.4-2.9 7.7-9 .4-.3.5-.5.5-.6.3-.2 2.1-3.3c0-.1.1-.1.2-.2l.4-.2.4-.3a.2.2 0 0 0 .2-.2l.4-.4.4-.4a12.5 12.5 0 0 0 1.2-1.7 14.3 14.3 0 0 0 1.4-2 21.4 21.4 0 0 0 1.3-1.9 18 18 0 0 0 1-1.8 12.1 12.1 0 0 0 .9-2 17.2 17.2 0 0 1 .7-2.1c.2-.8.5-1.5.7-2.2s1.1-1.5 1.1-2.3v-5.7a5.3 5.3 0 0 0-1.1-3.1 13.8 13.8 0 0 0-2.7-2.7 18.3 18.3 0 0 0-3.4-1.8 10.9 10.9 0 0 0-3.2-.7 28.8 28.8 0 0 0-5.9.7 12.6 12.6 0 0 0-5.1 2.7 6.4 6.4 0 0 0-1.5 1.4c-.5.6-1 1.3-1.6 1.9l-1.8 2-1.8 1.9a10.7 10.7 0 0 1-1.9 1.3 4.1 4.1 0 0 1-1.7.5 1.7 1.7 0 0 1-1.2-.5 1.6 1.6 0 0 1-.5-1.1v-.4a1.1 1.1 0 0 1 .1-.5c0-.3.1-.5.1-.8a2.4 2.4 0 0 0 .2-.8 1 1 0 0 1 .1-.4 4.3 4.3 0 0 0-.3-1.7l-.6-1.4-.6-1.2a2.7 2.7 0 0 1-.2-1.3c.4 0 .6 0 .8-.2l.5-.7.4-.7a1.2 1.2 0 0 1 .8-.6h2.9a1.2 1.2 0 0 0 .9-.3 2.3 2.3 0 0 1 .7-.7h.4l.3.4a1 1 0 0 0 .1.4c.1-.2.2-.3.4-.3l.7-.4 1.1-.7 1.4-.8 1.3-.8 1.1-.6.6-.4a13.5 13.5 0 0 1 2.1-1.3 6.4 6.4 0 0 1 1.8-.6 10.8 10.8 0 0 1 1.9-.3h6.5l1.5.5a4 4 0 0 0 1.5.3l1.6.4a4.3 4.3 0 0 1 1.6.5 15.9 15.9 0 0 1 4.6 3 21.2 21.2 0 0 1 3.2 4.2 21.8 21.8 0 0 1 1.7 5.1 25.6 25.6 0 0 1 .5 5.5v2.4z"/></symbol><symbol id="velociraptor" viewBox="0 0 256 256"><path d="M128-.3a128 128 0 1 0 128 128A128 128 0 0 0 128-.3zm110.7 116.8h-7.4c-3.1 0-6.2-.1-9.2-.4l-9.2-1-9.1-1c-3.1-.3-6.2-.4-9.3-.4a130 130 0 0 0-16.4 1 70.8 70.8 0 0 0-15.9 3.7l-30.8 11.1a2.7 2.7 0 0 0-1.2 1.6 17.3 17.3 0 0 0-.8 2.7l-.6 2.9a9.8 9.8 0 0 1-.6 2 3.2 3.2 0 0 0 1.3 1.3l2.5 1.2 2.9 1.1 2.8 1.5a12.9 12.9 0 0 1 2.1 1.9 4.1 4.1 0 0 1 .8 2.5 1.7 1.7 0 0 1-.5 1.2l-1.2.9-1.6.7a8 8 0 0 0-1.6.8 6.9 6.9 0 0 0-1.3 1.1 2.4 2.4 0 0 0-.4 1.5 3.3 3.3 0 0 0 .8 2.5 6 6 0 0 0 1.9 1.6 13.6 13.6 0 0 0 2.4 1.3 9.1 9.1 0 0 1 2.1 1.8 14.1 14.1 0 0 1 2.1 3.5 25 25 0 0 1 2 7.5c.2 1.4.1 2.7.3 4l1.3 1.3v7.1h.9l1 .2 1 .2.6.3v.8a3.8 3.8 0 0 1-.1 1 5.3 5.3 0 0 1-.3 1.2 2.6 2.6 0 0 1-.7 1 .8.8 0 0 1-.8.3h-5.3c-.2 0-.5-.5-1-.8l-1.5-.9-1.5-.8c-.6-.3-.9-.8-1.2-.8h-6.2a4.4 4.4 0 0 1 2.3-4.6l2.1-.6 2.2-.4a3.8 3.8 0 0 0 1.6-.6 1.6 1.6 0 0 0 .7-1.4.5.5 0 0 0-.1-.3v-.3a17.8 17.8 0 0 1-.8-1.8c-.4-.8-.8-1.6-1.3-2.4a21.3 21.3 0 0 0-1.6-2.5 7.1 7.1 0 0 0-1.5-1.8 4.9 4.9 0 0 0-1.3-.8l-1.9-1a10.8 10.8 0 0 1-1.8-1.1 1.9 1.9 0 0 1-.9-1.1 16.3 16.3 0 0 1-1-2.9 21.3 21.3 0 0 0-1.1-3.3 9 9 0 0 0-1.7-2.6 3.9 3.9 0 0 0-2.9-1 25.5 25.5 0 0 0-6.1.8 28 28 0 0 0-5.7 2.2 30.7 30.7 0 0 0-5.1 3.5 24.4 24.4 0 0 0-3.9 4.6c-.1.2-.2.2-.4.2h-.1l-.2-.2-.2-.3c0-.2-.1-.4-.1-.6s-.1-.5-.2-.6-.1-.3-.1-.4h-.3a1.5 1.5 0 0 0-1.1.4l-.9 1.2-.8 1.3a3 3 0 0 1-.9 1 4.6 4.6 0 0 1-.6-1.6 8.6 8.6 0 0 1-.1-1.7 9.2 9.2 0 0 1 .4-2.9l.9-2.8a13.4 13.4 0 0 0 .9-2.6 15.9 15.9 0 0 0 .4-2.8h-4.9c0-1.6.2-1.8.7-2.3A4.9 4.9 0 0 1 96 151a10 10 0 0 1 2.1-1l2.2-.2a15.1 15.1 0 0 1 3 .2l3 .4 2.9.5 2.9.2h2.3a2.7 2.7 0 0 0-1.7-1.4l-2.5-.4-2.7-.2c-.9-.1-1.6.1-2.2-.2l-4-2.2h-.2a11.4 11.4 0 0 0-3.2 0 16.9 16.9 0 0 1-3.2.1 7.3 7.3 0 0 1-3-.7l-2.7-1.5-2.6-1.3a5.4 5.4 0 0 0-2.9-.7v6.1h1.6l1-.3.9-.6a3.5 3.5 0 0 1 .9-.6l.6-.2v2.8l2-.7c0 .1.2.3.2.5s.2.4.2.5a5.9 5.9 0 0 1-1.4 4 24.4 24.4 0 0 1-3.3 2.9 19.9 19.9 0 0 0-4.6-1.3l-4.8-.7v-7.8c0 .1-1.1.2-1.8.5l-2 1a10.5 10.5 0 0 0-1.9 1.2c-.5.4-1 .8-1 1.2v7a9.6 9.6 0 0 0 3-.3l1.9-.6 1.2-.6a2.4 2.4 0 0 1 1.2-.3h.4l.3.7.4 1.2a9.3 9.3 0 0 1 .4 1.3 8.4 8.4 0 0 1 .2 1 4.3 4.3 0 0 1-.4 1.9 7.2 7.2 0 0 1-1.1 1.9 4.7 4.7 0 0 1-1.5 1.3 3.5 3.5 0 0 1-1.9.6h-1l-3-.4a22.1 22.1 0 0 1-3.7-.8 14.2 14.2 0 0 1-3.3-1.2 2.6 2.6 0 0 1-1.4-2.1v-12l.9-.8 1.9-1.6 2.4-2.2 2.4-2.6a21.1 21.1 0 0 0 1.8-2.7 5.1 5.1 0 0 0 .7-2.6 3.7 3.7 0 0 0-1.2-2.7 12.1 12.1 0 0 0-2.8-2.1 23.3 23.3 0 0 0-3.3-1.4l-2.5-.9-1.3-9.2q-.3-1.2-.6-2.7a13.9 13.9 0 0 0-1.2-2.8 5.8 5.8 0 0 0-1.7-2.1 4.4 4.4 0 0 0-2.7-.9 10.7 10.7 0 0 0-3.7.5 13 13 0 0 0-3.2 1.5l-1.7 1-2.5 1.5c-1 .6-2 1.1-3 1.8l-3 1.7c-1 .6-1.8 1.3-2.6 1.7s-1.3 1.1-1.6 1.1h-1l-1.8-.2-2.1-.4a2.2 2.2 0 0 1-1.3-.8c-.5-.3-.4-.8-.4-1.3v-1.9c0-.6-.2-.9.1-1h1.5v-.4c.1-.3.1-.5.2-.8s.1-.6.2-.9v-.5a1.5 1.5 0 0 0-.8-.8l-.9-.5-.7-.7a2.3 2.3 0 0 1-.3-1.3 2.6 2.6 0 0 1 .3-1.1 4.5 4.5 0 0 1 .6-1.2c.3-.4.3-.7.7-.9l.8-.3v.8a3.5 3.5 0 0 0 .6 1.4 1.1 1.1 0 0 0 1.2.8 2.1 2.1 0 0 0 1.1-.5 4.8 4.8 0 0 0 .9-1.1 12.2 12.2 0 0 0 .7-1.7c.1-.4.2.3.2-1.4H20.8a1.5 1.5 0 0 1-.8-.5l-1.1-.6a3.6 3.6 0 0 1-.9-.8 1.5 1.5 0 0 1-.4-1.1 4.3 4.3 0 0 1 1.1-3.2 8.1 8.1 0 0 1 2.6-1.8 17 17 0 0 1 3.2-1l2.9-.8 2.2-1 3.4-1.5 3.3-1.6a14.1 14.1 0 0 1 2.2-1.1h13.7a7.1 7.1 0 0 1 3.9 1 15.4 15.4 0 0 1 3.2 2.5 27 27 0 0 1 2.5 3.4l2.3 3.3a20.2 20.2 0 0 0 2.3 2.6 4.2 4.2 0 0 0 2.5 1 .9.9 0 0 0 .8-.4c.2-.3.4-.4.9-.4a4 4 0 0 1 1.5.3l1.5.7 1.5.7a4.5 4.5 0 0 0 1.6.3 29.5 29.5 0 0 0 4.2-.2l4.1-.4 4.1-.5a29.5 29.5 0 0 1 4.2-.2 57.4 57.4 0 0 1 7.3.4 39.5 39.5 0 0 1 7.3 1.5l5.1 2 5.1 2.2a47.2 47.2 0 0 0 5.3 1.8 20 20 0 0 0 5.4.7h2.6l13-2.7c4.3-.9 8.6-1.7 12.9-2.3s8.7-1.2 13-1.6 8.8-.6 13.2-.6h8.9a32.9 32.9 0 0 1 5.1 1l36.7 7.3h11.7c-.8 0-1.8 1-3.1 1.3a18.4 18.4 0 0 1-4.1.3z"/></symbol><symbol id="micropachycephalosaurus" viewBox="0 0 256 256"><path d="M132.2 151c-.2 0-.4.2-.4.6h-.1c-.3 0-.4.1-.4.5s.1.6.4.6.5-.2.5-.6c.4 0 .6-.2.6-.5a.5.5 0 0 0-.6-.6zm1.5-.8a1.8 1.8 0 0 0-.9.8h.3a2.8 2.8 0 0 0 1.2-.4 2 2 0 0 0 .8-.8h-.3a1.7 1.7 0 0 0-1.1.4zm3.1-2.6c-.3 0-.4.2-.4.5h-.2c-.3 0-.4.2-.4.6h-.1c-.3 0-.5.2-.5.6s.2.5.5.5.4-.1.4-.5h.1c.3 0 .5-.2.5-.6h.1c.3 0 .5-.2.5-.6a.5.5 0 0 0-.5-.5zm23.4-6l-1.3 1.4a1.7 1.7 0 0 0 .8 1.1l1.2.2a2.7 2.7 0 0 0 1.4-.5 4 4 0 0 0 1-1.2 10.9 10.9 0 0 0 .8-1.5c.2-.5.4-1.2.5-1.2h-3.4c-.2 0-.6 1.1-1 1.7z"/><path d="M127.7-.3a128 128 0 1 0 128 128 128 128 0 0 0-128-128zm95.9 75.9l-1.5.4h-3.7a37.4 37.4 0 0 0-5.3 1.3 21.6 21.6 0 0 0-3.7 1.6 8.8 8.8 0 0 0-2.5 2.2 15.8 15.8 0 0 0-1.7 2.9 20.8 20.8 0 0 0-1.5 4c-.5 1.5-1.1 3.1-1.7 5.1l-1.2 3.4a30.5 30.5 0 0 1-1.3 3.2c-.4 1.1-.9 2.1-1.4 3.2s-1.1 2.1-1.8 3.2a24.2 24.2 0 0 1-2.7 4.1 34.7 34.7 0 0 1-3 3.7l-3.1 3.6a40.8 40.8 0 0 0-3.1 3.9 11.6 11.6 0 0 0-1.4 2.7 18.6 18.6 0 0 1-1 2.5 10.5 10.5 0 0 1-1.3 2.3 6.7 6.7 0 0 1-2.5 1.6l-1.4.5-2 .7-2.1.6-1.3.4a3.1 3.1 0 0 1 .1 2.1 2.4 2.4 0 0 1-.8.9l-1.3.6a1.8 1.8 0 0 0-.9 1l-2.2 6.8a3.3 3.3 0 0 1-1.1 1.5 4.9 4.9 0 0 1-1.8.8 12.3 12.3 0 0 1-2 .2 11.5 11.5 0 0 1-1.9-.1h-.8c-.5 0-.9.2-1.2 0a.8.8 0 0 1-.4-.8c0-.2.1-.3.1-.4l.3-.3.2-.3c.1-.1.1-.2.1-.4a27.2 27.2 0 0 0-3.5 1.6l-3.4 2.1-3.3 2.2-3.4 2-.9.4-1.1.6a2.7 2.7 0 0 0-1 .8 1.4 1.4 0 0 0-.5 1 .8.8 0 0 0 .1.4v.2a14.5 14.5 0 0 0 1.8 1.6l1.9 1.8 2.1 1.6 2.1 1.2a6.7 6.7 0 0 0 1.8.7l2 .6 1.9.6 1.7.9a9.3 9.3 0 0 1 1.3 1.5l1.1 1.5 1.2 1.4a4.7 4.7 0 0 0 1.5 1.3 3.4 3.4 0 0 0 1.6.6l2.1.7a5.2 5.2 0 0 1 1.8 1 2.1 2.1 0 0 1 .8 1.7.4.4 0 0 1-.1.3v.2l-5.7 1.2-1.1.4-1.1.2h-.6l-1.2-.6-1.7-1.1-1.7-1-1.1-.7-.2-.2-.3-.5-.3-.6-.3-.4-2.2-4.6-1.2-.4-1.8-.8-2.2-.9-2.1-1-1.8-.8-1.2-.6-2.8-1.6a17.8 17.8 0 0 1-2.6-2.2 10.5 10.5 0 0 1-2-2.7 8.9 8.9 0 0 1-1.1-3.1l-.5.2-.6.3-.9.7-1.7 1.2-2.2 1.4-2.1 1.4-1.8 1-.9.6-6 3.5a24.2 24.2 0 0 0-4.6 3.5 17.7 17.7 0 0 0-3.7 4.4c-.9 1.8-.7 4-2.4 6.7v.2c0 .1.1.3 0 .4v1a10.5 10.5 0 0 0 1.2 4.5 9.2 9.2 0 0 0 2.1 2.6 9.9 9.9 0 0 0 2.7 1.4l2.6 1a5.6 5.6 0 0 1 1.9.9 5.2 5.2 0 0 1 .9 2.1h-13.5s0-.3-.1-.4-.3-.1-.4-.2l-.5-.2c-.2-.1-.4-.1-.6-.3a3.4 3.4 0 0 1-1.3-1.6 10.8 10.8 0 0 1-.5-2.1c0-.8.2-1.6.2-2.4a19.6 19.6 0 0 0 .3-2V181a8.2 8.2 0 0 1 .3-1.8c.2-.8.3-1.7.6-2.7s.5-2.1.8-3.2.5-2.2.8-3.2.4-1.9.6-2.6l.5-1.8c.2-.8.4-1.4.6-2l1-2a13.4 13.4 0 0 0 4.6-2.5 32.7 32.7 0 0 0 3.2-3.3l3-3.5a14.5 14.5 0 0 1 3.4-3.1 5.3 5.3 0 0 1 1.5-.7l2-.8 2.4-1a10.3 10.3 0 0 0 2.1-1.1 5.6 5.6 0 0 0 1.6-1.4 2 2 0 0 0 .6-1.5v-1.4a1.7 1.7 0 0 0-.6-1.2l-.8-.3-1.2-.5-1.2-.6-.7-.3-2.1-1.2c-.9-.6-1.7-1.3-2.7-1.9a25.6 25.6 0 0 0-2.5-1.6 3.4 3.4 0 0 0-1.8-.6h-7.9c-6 0-12-.1-17.8.1s-11.8.2-17.8.2c-4.4 0-8.8-.1-13-.3s-8.3-.7-12.4-1.4a82.3 82.3 0 0 1-12.1-3 64.1 64.1 0 0 1-11.9-5l-1.4-.8-1.6-1a4 4 0 0 1-1.3-1.3 2.5 2.5 0 0 1-.6-1.6 9.5 9.5 0 0 1 2.1.4l2.5 1 2.2.9 1.5.7 4.7 1.6a38 38 0 0 0 5.1 1.5 45.9 45.9 0 0 0 5.1 1 28.5 28.5 0 0 0 4.9.4h25.5l1.2-.2 2.6-.3 3.4-.5 3.7-.7 3.4-.6 2.7-.6 7-1.3 7.4-1.6c2.5-.6 4.9-1.3 7.3-2.1a43.9 43.9 0 0 0 6.6-2.9l3.9-1.8 3.8-1.6 4-1.3a25.9 25.9 0 0 1 4.2-.9h1l1.8-.2h1.8l1.1-.2 1.9-.3 3.4-.8 4-.9 4.1-.9c1.3-.3 2.4-.9 3.4-1.1s1.5-.8 1.9-.8h6.6a69.9 69.9 0 0 1 8 .8c2.5.2 5.2.5 7.9.5a10.1 10.1 0 0 0 5-1.3 18.7 18.7 0 0 0 4.6-3.5 33.3 33.3 0 0 0 3.9-5q1.8-2.8 3.3-5.7c.9-1.9 1.8-3.8 2.5-5.6a44.4 44.4 0 0 0 1.8-4.9c.5-1.2.8-2.3 1.2-3.5a28.1 28.1 0 0 1 1-3.1 10.3 10.3 0 0 1 1.2-2.6 5.8 5.8 0 0 1 1.8-2 7.8 7.8 0 0 1 2.6-1.7 12.7 12.7 0 0 1 3.8-.8h3.1c.8 1.7 1.8 1 3 1.4l3.6 1.5a21.6 21.6 0 0 1 3 1.8 3.1 3.1 0 0 1 1.2 2.2 2.4 2.4 0 0 1-.4 1.5 3.6 3.6 0 0 1-1.2.6z"/></symbol></svg>