<svg xmlns="http://www.w3.org/2000/svg" width="256" height="256" viewBox="0 0 256 256"><path d="M128-.3a128 128 0 1 0 128 128A128 128 0 0 0 128-.3zm110.7 116.8h-7.4c-3.1 0-6.2-.1-9.2-.4l-9.2-1-9.1-1c-3.1-.3-6.2-.4-9.3-.4a130 130 0 0 0-16.4 1 70.8 70.8 0 0 0-15.9 3.7l-30.8 11.1a2.7 2.7 0 0 0-1.2 1.6 17.3 17.3 0 0 0-.8 2.7l-.6 2.9a9.8 9.8 0 0 1-.6 2 3.2 3.2 0 0 0 1.3 1.3l2.5 1.2 2.9 1.1 2.8 1.5a12.9 12.9 0 0 1 2.1 1.9 4.1 4.1 0 0 1 .8 2.5 1.7 1.7 0 0 1-.5 1.2l-1.2.9-1.6.7a8 8 0 0 0-1.6.8 6.9 6.9 0 0 0-1.3 1.1 2.4 2.4 0 0 0-.4 1.5 3.3 3.3 0 0 0 .8 2.5 6 6 0 0 0 1.9 1.6 13.6 13.6 0 0 0 2.4 1.3 9.1 9.1 0 0 1 2.1 1.8 14.1 14.1 0 0 1 2.1 3.5 25 25 0 0 1 2 7.5c.2 1.4.1 2.7.3 4l1.3 1.3v7.1h.9l1 .2 1 .2.6.3v.8a3.8 3.8 0 0 1-.1 1 5.3 5.3 0 0 1-.3 1.2 2.6 2.6 0 0 1-.7 1 .8.8 0 0 1-.8.3h-5.3c-.2 0-.5-.5-1-.8l-1.5-.9-1.5-.8c-.6-.3-.9-.8-1.2-.8h-6.2a4.4 4.4 0 0 1 2.3-4.6l2.1-.6 2.2-.4a3.8 3.8 0 0 0 1.6-.6 1.6 1.6 0 0 0 .7-1.4.5.5 0 0 0-.1-.3v-.3a17.8 17.8 0 0 1-.8-1.8c-.4-.8-.8-1.6-1.3-2.4a21.3 21.3 0 0 0-1.6-2.5 7.1 7.1 0 0 0-1.5-1.8 4.9 4.9 0 0 0-1.3-.8l-1.9-1a10.8 10.8 0 0 1-1.8-1.1 1.9 1.9 0 0 1-.9-1.1 16.3 16.3 0 0 1-1-2.9 21.3 21.3 0 0 0-1.1-3.3 9 9 0 0 0-1.7-2.6 3.9 3.9 0 0 0-2.9-1 25.5 25.5 0 0 0-6.1.8 28 28 0 0 0-5.7 2.2 30.7 30.7 0 0 0-5.1 3.5 24.4 24.4 0 0 0-3.9 4.6c-.1.2-.2.2-.4.2h-.1l-.2-.2-.2-.3c0-.2-.1-.4-.1-.6s-.1-.5-.2-.6-.1-.3-.1-.4h-.3a1.5 1.5 0 0 0-1.1.4l-.9 1.2-.8 1.3a3 3 0 0 1-.9 1 4.6 4.6 0 0 1-.6-1.6 8.6 8.6 0 0 1-.1-1.7 9.2 9.2 0 0 1 .4-2.9l.9-2.8a13.4 13.4 0 0 0 .9-2.6 15.9 15.9 0 0 0 .4-2.8h-4.9c0-1.6.2-1.8.7-2.3A4.9 4.9 0 0 1 96 151a10 10 0 0 1 2.1-1l2.2-.2a15.1 15.1 0 0 1 3 .2l3 .4 2.9.5 2.9.2h2.3a2.7 2.7 0 0 0-1.7-1.4l-2.5-.4-2.7-.2c-.9-.1-1.6.1-2.2-.2l-4-2.2h-.2a11.4 11.4 0 0 0-3.2 0 16.9 16.9 0 0 1-3.2.1 7.3 7.3 0 0 1-3-.7l-2.7-1.5-2.6-1.3a5.4 5.4 0 0 0-2.9-.7v6.1h1.6l1-.3.9-.6a3.5 3.5 0 0 1 .9-.6l.6-.2v2.8l2-.7c0 .1.2.3.2.5s.2.4.2.5a5.9 5.9 0 0 1-1.4 4 24.4 24.4 0 0 1-3.3 2.9 19.9 19.9 0 0 0-4.6-1.3l-4.8-.7v-7.8c0 .1-1.1.2-1.8.5l-2 1a10.5 10.5 0 0 0-1.9 1.2c-.5.4-1 .8-1 1.2v7a9.6 9.6 0 0 0 3-.3l1.9-.6 1.2-.6a2.4 2.4 0 0 1 1.2-.3h.4l.3.7.4 1.2a9.3 9.3 0 0 1 .4 1.3 8.4 8.4 0 0 1 .2 1 4.3 4.3 0 0 1-.4 1.9 7.2 7.2 0 0 1-1.1 1.9 4.7 4.7 0 0 1-1.5 1.3 3.5 3.5 0 0 1-1.9.6h-1l-3-.4a22.1 22.1 0 0 1-3.7-.8 14.2 14.2 0 0 1-3.3-1.2 2.6 2.6 0 0 1-1.4-2.1v-12l.9-.8 1.9-1.6 2.4-2.2 2.4-2.6a21.1 21.1 0 0 0 1.8-2.7 5.1 5.1 0 0 0 .7-2.6 3.7 3.7 0 0 0-1.2-2.7 12.1 12.1 0 0 0-2.8-2.1 23.3 23.3 0 0 0-3.3-1.4l-2.5-.9-1.3-9.2q-.3-1.2-.6-2.7a13.9 13.9 0 0 0-1.2-2.8 5.8 5.8 0 0 0-1.7-2.1 4.4 4.4 0 0 0-2.7-.9 10.7 10.7 0 0 0-3.7.5 13 13 0 0 0-3.2 1.5l-1.7 1-2.5 1.5c-1 .6-2 1.1-3 1.8l-3 1.7c-1 .6-1.8 1.3-2.6 1.7s-1.3 1.1-1.6 1.1h-1l-1.8-.2-2.1-.4a2.2 2.2 0 0 1-1.3-.8c-.5-.3-.4-.8-.4-1.3v-1.9c0-.6-.2-.9.1-1h1.5v-.4c.1-.3.1-.5.2-.8s.1-.6.2-.9v-.5a1.5 1.5 0 0 0-.8-.8l-.9-.5-.7-.7a2.3 2.3 0 0 1-.3-1.3 2.6 2.6 0 0 1 .3-1.1 4.5 4.5 0 0 1 .6-1.2c.3-.4.3-.7.7-.9l.8-.3v.8a3.5 3.5 0 0 0 .6 1.4 1.1 1.1 0 0 0 1.2.8 2.1 2.1 0 0 0 1.1-.5 4.8 4.8 0 0 0 .9-1.1 12.2 12.2 0 0 0 .7-1.7c.1-.4.2.3.2-1.4H20.8a1.5 1.5 0 0 1-.8-.5l-1.1-.6a3.6 3.6 0 0 1-.9-.8 1.5 1.5 0 0 1-.4-1.1 4.3 4.3 0 0 1 1.1-3.2 8.1 8.1 0 0 1 2.6-1.8 17 17 0 0 1 3.2-1l2.9-.8 2.2-1 3.4-1.5 3.3-1.6a14.1 14.1 0 0 1 2.2-1.1h13.7a7.1 7.1 0 0 1 3.9 1 15.4 15.4 0 0 1 3.2 2.5 27 27 0 0 1 2.5 3.4l2.3 3.3a20.2 20.2 0 0 0 2.3 2.6 4.2 4.2 0 0 0 2.5 1 .9.9 0 0 0 .8-.4c.2-.3.4-.4.9-.4a4 4 0 0 1 1.5.3l1.5.7 1.5.7a4.5 4.5 0 0 0 1.6.3 29.5 29.5 0 0 0 4.2-.2l4.1-.4 4.1-.5a29.5 29.5 0 0 1 4.2-.2 57.4 57.4 0 0 1 7.3.4 39.5 39.5 0 0 1 7.3 1.5l5.1 2 5.1 2.2a47.2 47.2 0 0 0 5.3 1.8 20 20 0 0 0 5.4.7h2.6l13-2.7c4.3-.9 8.6-1.7 12.9-2.3s8.7-1.2 13-1.6 8.8-.6 13.2-.6h8.9a32.9 32.9 0 0 1 5.1 1l36.7 7.3h11.7c-.8 0-1.8 1-3.1 1.3a18.4 18.4 0 0 1-4.1.3z"/></svg>